<svg xmlns="http://www.w3.org/2000/svg" width="325.37" height="402.09" viewBox="0 0 325.37 402.09"><path d="M473.59,221.72s-59.3-2.35-68.71,29.18c0,0-39.53,14.11-40.47,46.58,0,0-32,28.71-28.7,64.47,0,0-37.65,24-10.36,89.89,0,0-22.11,51.29,20.24,86.11,0,0-6.59,54.59,54.59,54.12,0,0,17.41,37.18,72,10.35,0,0,52.23,18.83,71.06-8.47,0,0,51.76,4.71,59.76-51.29,0,0,50.35-73.88,19.76-101.65,0,0,16-54.11-14.11-81.41,0,0,6.59-56.47-36.71-66.35,0,0,6.12-35.77-27.29-42.83C544.65,250.42,530.53,213.25,473.59,221.72Z" transform="translate(-310.82 -214.85)" fill="#f5b2c2" stroke="#1d1d1b" stroke-linecap="round" stroke-miterlimit="10" stroke-width="2"/><path d="M406.29,248.9s-31.05,4.94-42.35,48.7c0,0-44.12,33.18-19.06,84.35" transform="translate(-310.82 -214.85)" fill="none" stroke="#f18ca3" stroke-linecap="round" stroke-miterlimit="10" stroke-width="10"/><path d="M337.12,356.9s-37.06,28.23-13.41,94.58" transform="translate(-310.82 -214.85)" fill="none" stroke="#f18ca3" stroke-linecap="round" stroke-miterlimit="10" stroke-width="10"/><path d="M341.35,428.19s-51.88,52.94,5.3,112.23" transform="translate(-310.82 -214.85)" fill="none" stroke="#f18ca3" stroke-linecap="round" stroke-miterlimit="10" stroke-width="10"/><path d="M353.71,521S333,556.23,361.12,580c23.47,19.77,39.35,10.59,39.35,10.59" transform="translate(-310.82 -214.85)" fill="none" stroke="#f18ca3" stroke-linecap="round" stroke-miterlimit="10" stroke-width="10"/><path d="M473.53,220.78c.12.21-88.58-5.89-64.65,60.23" transform="translate(-310.82 -214.85)" fill="none" stroke="#f18ca3" stroke-linecap="round" stroke-miterlimit="10" stroke-width="10"/><path d="M402.94,564.78s-16.76,38.47,24.68,46.41c10.5,2,26.85.35,45.91-9.24V413.37" transform="translate(-310.82 -214.85)" fill="none" stroke="#f18ca3" stroke-linecap="round" stroke-miterlimit="10" stroke-width="10"/><path d="M473.35,319.37s-16.47,15.53-52.47-4.71" transform="translate(-310.82 -214.85)" fill="none" stroke="#f18ca3" stroke-linecap="round" stroke-miterlimit="10" stroke-width="10"/><path d="M394.76,316.31s-7.52,37.88,24,60.23,10.36,63.06,10.36,63.06" transform="translate(-310.82 -214.85)" fill="none" stroke="#f18ca3" stroke-linecap="round" stroke-miterlimit="10" stroke-width="10"/><path d="M374.06,383.84s5.18-21.42,31.76-19.77" transform="translate(-310.82 -214.85)" fill="none" stroke="#f18ca3" stroke-linecap="round" stroke-miterlimit="10" stroke-width="10"/><path d="M366.06,456.78s24.7,16,23.29,65.64" transform="translate(-310.82 -214.85)" fill="none" stroke="#f18ca3" stroke-linecap="round" stroke-miterlimit="10" stroke-width="10"/><path d="M421.59,518s-15.06,1.42-33.18-15.76" transform="translate(-310.82 -214.85)" fill="none" stroke="#f18ca3" stroke-linecap="round" stroke-miterlimit="10" stroke-width="10"/><path d="M489.82,556.07s-7.29-.94-16.23-9.17" transform="translate(-310.82 -214.85)" fill="none" stroke="#f18ca3" stroke-linecap="round" stroke-miterlimit="10" stroke-width="10"/><path d="M508.41,508.07S510.24,462.9,474,458" transform="translate(-310.82 -214.85)" fill="none" stroke="#f18ca3" stroke-linecap="round" stroke-miterlimit="10" stroke-width="10"/><path d="M535.94,485.72s-8.66,9.65-31-.46" transform="translate(-310.82 -214.85)" fill="none" stroke="#f18ca3" stroke-linecap="round" stroke-miterlimit="10" stroke-width="10"/><path d="M530.53,411.13s30.12,9.18,32,40" transform="translate(-310.82 -214.85)" fill="none" stroke="#f18ca3" stroke-linecap="round" stroke-miterlimit="10" stroke-width="10"/><path d="M515.47,349.72s-17.41-10.12-41.88,3.06" transform="translate(-310.82 -214.85)" fill="none" stroke="#f18ca3" stroke-linecap="round" stroke-miterlimit="10" stroke-width="10"/><path d="M505.35,287.6s-12.47.24-31.76-20" transform="translate(-310.82 -214.85)" fill="none" stroke="#f18ca3" stroke-linecap="round" stroke-miterlimit="10" stroke-width="10"/><path d="M473.53,220.78s56.06-8.94,70.18,28.7c0,0,32,6.59,29.64,42.83s-25.88,38.11-25.88,38.11" transform="translate(-310.82 -214.85)" fill="none" stroke="#f18ca3" stroke-linecap="round" stroke-miterlimit="10" stroke-width="10"/><path d="M578.06,362.9s-13.18-2.36-17.88-38.59" transform="translate(-310.82 -214.85)" fill="none" stroke="#f18ca3" stroke-linecap="round" stroke-miterlimit="10" stroke-width="10"/><path d="M573.35,292.31s39.06,12.7,37.18,67.76c0,0,53.18,69.18-24,120.47" transform="translate(-310.82 -214.85)" fill="none" stroke="#f18ca3" stroke-linecap="round" stroke-miterlimit="10" stroke-width="10"/><path d="M600.65,540.78s47.53-49.88,24-104" transform="translate(-310.82 -214.85)" fill="none" stroke="#f18ca3" stroke-linecap="round" stroke-miterlimit="10" stroke-width="10"/><path d="M473.53,602s50.41,20.71,73-8.94" transform="translate(-310.82 -214.85)" fill="none" stroke="#f18ca3" stroke-linecap="round" stroke-miterlimit="10" stroke-width="10"/><path d="M521.59,574.66s22.12,35.76,61.17,5.65,4.71-62.12,4.71-62.12" transform="translate(-310.82 -214.85)" fill="none" stroke="#f18ca3" stroke-linecap="round" stroke-miterlimit="10" stroke-width="10"/><line x1="162.71" y1="198.52" x2="162.71" y2="7.8" fill="none" stroke="#f18ca3" stroke-linecap="round" stroke-miterlimit="10" stroke-width="10"/></svg>