<svg xmlns="http://www.w3.org/2000/svg" width="492.5" height="453.26" viewBox="0 0 492.5 453.26"><ellipse cx="52.76" cy="201.87" rx="49.76" ry="17.6" fill="none" stroke="#fff" stroke-miterlimit="10" stroke-width="6"/><ellipse cx="227.08" cy="416.6" rx="49.76" ry="17.6" transform="translate(-419.11 152.27) rotate(-55.41)" fill="none" stroke="#fff" stroke-miterlimit="10" stroke-width="6"/><ellipse cx="227.08" cy="416.6" rx="17.6" ry="49.76" transform="translate(-370.7 -12.14) rotate(-34.59)" fill="none" stroke="#fff" stroke-miterlimit="10" stroke-width="6"/><circle cx="52.95" cy="201.74" r="4.94" fill="#fff" stroke="#fff" stroke-miterlimit="10" stroke-width="6"/><path d="M319.47,440.44" transform="translate(-174.32 -214.73)" fill="none" stroke="#fff" stroke-miterlimit="10" stroke-width="6"/><path d="M571.59,217.73s6.88,1.81,11.49,13.55,6.11,31.61,16.77,39.35,33.31.19,33.31.19,15.46-7.07,30.64-.18" transform="translate(-174.32 -214.73)" fill="none" stroke="#fff" stroke-linecap="round" stroke-miterlimit="10" stroke-width="6"/><path d="M648.17,297.49s-9.18-.83-15-26.67c0,0-2-16.27-13.67-25.74s-32.33-.65-32.33-.65-21.53,7.61-30.22.44" transform="translate(-174.32 -214.73)" fill="none" stroke="#fff" stroke-linecap="round" stroke-miterlimit="10" stroke-width="6"/><line x1="404.7" y1="9.59" x2="391.81" y2="31.69" fill="none" stroke="#fff" stroke-linecap="round" stroke-miterlimit="10" stroke-width="6"/><line x1="434.32" y1="26.68" x2="420.9" y2="50.19" fill="none" stroke="#fff" stroke-linecap="round" stroke-miterlimit="10" stroke-width="6"/><line x1="437.61" y1="58.68" x2="450.58" y2="36.2" fill="none" stroke="#fff" stroke-linecap="round" stroke-miterlimit="10" stroke-width="6"/><line x1="480.03" y1="53.33" x2="466.81" y2="76.24" fill="none" stroke="#fff" stroke-linecap="round" stroke-miterlimit="10" stroke-width="6"/><rect x="592.91" y="631.52" width="30.63" height="12.29" transform="translate(454.73 -458.05) rotate(45)" stroke-width="6" stroke="#fff" stroke-linecap="round" stroke-linejoin="round" fill="none"/><line x1="485.34" y1="387.2" x2="468.85" y2="371.45" fill="none" stroke="#fff" stroke-linecap="round" stroke-linejoin="round" stroke-width="6"/><path d="M597.26,635.39c-10.11,7.28-10.78,23.72-10.78,23.72A32,32,0,0,0,610.9,649" transform="translate(-174.32 -214.73)" fill="none" stroke="#fff" stroke-linecap="round" stroke-linejoin="round" stroke-width="6"/><path d="M640.24,635.39c3.41,20.87-15.93,29.6-15.93,29.6l-.91-20.84c43.28-17.77,40.37-61.89,40.37-61.89A70.26,70.26,0,0,0,642.66,585c-14.31,4.05-32.15,13.87-40.92,37.46l-21-1.85s7.88-17.18,29.18-14.59" transform="translate(-174.32 -214.73)" fill="none" stroke="#fff" stroke-linecap="round" stroke-linejoin="round" stroke-width="6"/><circle cx="460.28" cy="396.5" r="9.29" fill="none" stroke="#fff" stroke-linecap="round" stroke-linejoin="round" stroke-width="6"/></svg>