<svg xmlns="http://www.w3.org/2000/svg" width="525.41" height="599.72" viewBox="0 0 525.41 599.72"><path d="M365.89,679.65a31.2,31.2,0,1,1-8.82-21.74A31.08,31.08,0,0,1,365.89,679.65Z" transform="translate(-301.49 -113.13)" fill="none" stroke="#dbcbe5" stroke-linecap="round" stroke-miterlimit="10" stroke-width="4"/><line x1="33.2" y1="536.56" x2="33.2" y2="597.72" fill="none" stroke="#dbcbe5" stroke-linecap="round" stroke-miterlimit="10" stroke-width="4"/><line x1="63.78" y1="567.14" x2="2.62" y2="567.14" fill="none" stroke="#dbcbe5" stroke-linecap="round" stroke-miterlimit="10" stroke-width="4"/><ellipse cx="33.2" cy="567.14" rx="13.9" ry="30.55" fill="none" stroke="#dbcbe5" stroke-linecap="round" stroke-miterlimit="10" stroke-width="4"/><path d="M357.07,657.91a42.84,42.84,0,0,1-11.44,3.52,65.51,65.51,0,0,1-21.88,0,43,43,0,0,1-11.44-3.52,31.2,31.2,0,0,1,44.76,0Z" transform="translate(-301.49 -113.13)" fill="none" stroke="#dbcbe5" stroke-linecap="round" stroke-miterlimit="10" stroke-width="4"/><path d="M357.32,701.13a31.2,31.2,0,0,1-45.26,0,42.65,42.65,0,0,1,11.17-3.55,65.46,65.46,0,0,1,22.91,0A42.49,42.49,0,0,1,357.32,701.13Z" transform="translate(-301.49 -113.13)" fill="none" stroke="#dbcbe5" stroke-linecap="round" stroke-miterlimit="10" stroke-width="4"/><text transform="translate(460.31 318.99) scale(0.83 1)" font-size="55.25" fill="#dbcbe5" font-family="Calibri-Bold, Calibri" font-weight="700">&lt;/&gt;</text><rect x="49.85" y="65.64" width="29.11" height="9.74" rx="3.12" fill="none" stroke="#dbcbe5" stroke-miterlimit="10" stroke-width="4"/><path d="M373.6,188.51v2.29a6.52,6.52,0,0,1-6.53,6.52h-2.81a6.52,6.52,0,0,1-6.52-6.52V171.35a21.75,21.75,0,1,1,15.86.18Z" transform="translate(-301.49 -113.13)" fill="none" stroke="#dbcbe5" stroke-linecap="round" stroke-linejoin="round" stroke-width="4"/><path d="M370.54,141s6.86,3.6,7.86,8.75" transform="translate(-301.49 -113.13)" fill="none" stroke="#dbcbe5" stroke-linecap="round" stroke-miterlimit="10" stroke-width="4"/><line x1="25.06" y1="45.83" x2="31.37" y2="45.16" fill="none" stroke="#dbcbe5" stroke-linecap="round" stroke-miterlimit="10" stroke-width="4"/><line x1="32.36" y1="31.44" x2="27.16" y2="29.45" fill="none" stroke="#dbcbe5" stroke-linecap="round" stroke-miterlimit="10" stroke-width="4"/><line x1="39.67" y1="19.49" x2="35.13" y2="15.39" fill="none" stroke="#dbcbe5" stroke-linecap="round" stroke-miterlimit="10" stroke-width="4"/><path d="M352.33,124.1c-.11-.34-2.76-5.32-2.76-5.32" transform="translate(-301.49 -113.13)" fill="none" stroke="#dbcbe5" stroke-linecap="round" stroke-miterlimit="10" stroke-width="4"/><line x1="64.4" y1="8.31" x2="64.4" y2="2" fill="none" stroke="#dbcbe5" stroke-linecap="round" stroke-miterlimit="10" stroke-width="4"/><line x1="77.85" y1="10.96" x2="80.51" y2="5.65" fill="none" stroke="#dbcbe5" stroke-linecap="round" stroke-miterlimit="10" stroke-width="4"/><line x1="88.92" y1="19.49" x2="93.68" y2="15.39" fill="none" stroke="#dbcbe5" stroke-linecap="round" stroke-miterlimit="10" stroke-width="4"/><line x1="95.56" y1="31.44" x2="101.75" y2="29.45" fill="none" stroke="#dbcbe5" stroke-linecap="round" stroke-miterlimit="10" stroke-width="4"/><line x1="97.44" y1="45.16" x2="103.75" y2="45.83" fill="none" stroke="#dbcbe5" stroke-linecap="round" stroke-miterlimit="10" stroke-width="4"/></svg>