<svg xmlns="http://www.w3.org/2000/svg" width="522.92" height="598.72" viewBox="0 0 522.92 598.72"><path d="M365.89,679.65a31.2,31.2,0,1,1-8.82-21.74A31.08,31.08,0,0,1,365.89,679.65Z" transform="translate(-301.99 -113.63)" fill="none" stroke="#dbcbe5" stroke-linecap="round" stroke-miterlimit="10" stroke-width="3"/><line x1="32.7" y1="536.06" x2="32.7" y2="597.22" fill="none" stroke="#dbcbe5" stroke-linecap="round" stroke-miterlimit="10" stroke-width="3"/><line x1="63.28" y1="566.64" x2="2.12" y2="566.64" fill="none" stroke="#dbcbe5" stroke-linecap="round" stroke-miterlimit="10" stroke-width="3"/><ellipse cx="32.7" cy="566.64" rx="13.9" ry="30.55" fill="none" stroke="#dbcbe5" stroke-linecap="round" stroke-miterlimit="10" stroke-width="3"/><path d="M357.07,657.91a42.84,42.84,0,0,1-11.44,3.52,65.51,65.51,0,0,1-21.88,0,43,43,0,0,1-11.44-3.52,31.2,31.2,0,0,1,44.76,0Z" transform="translate(-301.99 -113.63)" fill="none" stroke="#dbcbe5" stroke-linecap="round" stroke-miterlimit="10" stroke-width="3"/><path d="M357.32,701.13a31.2,31.2,0,0,1-45.26,0,42.65,42.65,0,0,1,11.17-3.55,65.46,65.46,0,0,1,22.91,0A42.49,42.49,0,0,1,357.32,701.13Z" transform="translate(-301.99 -113.63)" fill="none" stroke="#dbcbe5" stroke-linecap="round" stroke-miterlimit="10" stroke-width="3"/><text transform="translate(459.81 318.49) scale(0.83 1)" font-size="55.25" fill="#dbcbe5" font-family="Calibri">&lt;/&gt;</text><rect x="49.35" y="65.14" width="29.11" height="9.74" rx="3.12" fill="none" stroke="#dbcbe5" stroke-miterlimit="10" stroke-width="3"/><path d="M373.6,188.51v2.29a6.52,6.52,0,0,1-6.53,6.52h-2.81a6.52,6.52,0,0,1-6.52-6.52V171.35a21.75,21.75,0,1,1,15.86.18Z" transform="translate(-301.99 -113.63)" fill="none" stroke="#dbcbe5" stroke-linecap="round" stroke-linejoin="round" stroke-width="3"/><path d="M370.54,141s6.86,3.6,7.86,8.75" transform="translate(-301.99 -113.63)" fill="none" stroke="#dbcbe5" stroke-linecap="round" stroke-miterlimit="10" stroke-width="3"/><line x1="24.56" y1="45.33" x2="30.87" y2="44.66" fill="none" stroke="#dbcbe5" stroke-linecap="round" stroke-miterlimit="10" stroke-width="3"/><line x1="31.86" y1="30.94" x2="26.66" y2="28.95" fill="none" stroke="#dbcbe5" stroke-linecap="round" stroke-miterlimit="10" stroke-width="3"/><line x1="39.17" y1="18.99" x2="34.63" y2="14.89" fill="none" stroke="#dbcbe5" stroke-linecap="round" stroke-miterlimit="10" stroke-width="3"/><path d="M352.33,124.1c-.11-.34-2.76-5.32-2.76-5.32" transform="translate(-301.99 -113.63)" fill="none" stroke="#dbcbe5" stroke-linecap="round" stroke-miterlimit="10" stroke-width="3"/><line x1="63.9" y1="7.81" x2="63.9" y2="1.5" fill="none" stroke="#dbcbe5" stroke-linecap="round" stroke-miterlimit="10" stroke-width="3"/><line x1="77.35" y1="10.46" x2="80.01" y2="5.15" fill="none" stroke="#dbcbe5" stroke-linecap="round" stroke-miterlimit="10" stroke-width="3"/><line x1="88.42" y1="18.99" x2="93.18" y2="14.89" fill="none" stroke="#dbcbe5" stroke-linecap="round" stroke-miterlimit="10" stroke-width="3"/><line x1="95.06" y1="30.94" x2="101.25" y2="28.95" fill="none" stroke="#dbcbe5" stroke-linecap="round" stroke-miterlimit="10" stroke-width="3"/><line x1="96.94" y1="44.66" x2="103.25" y2="45.33" fill="none" stroke="#dbcbe5" stroke-linecap="round" stroke-miterlimit="10" stroke-width="3"/></svg>