<svg xmlns="http://www.w3.org/2000/svg" width="39.68" height="39.94" viewBox="0 0 39.68 39.94"><rect x="1.5" y="7.74" width="27.18" height="30.71" rx="2.68" style="fill:#fff"/><path d="M26,9.35a1.18,1.18,0,0,1,1.18,1.18V35.88A1.18,1.18,0,0,1,26,37.06H4.21A1.18,1.18,0,0,1,3,35.88V10.53A1.18,1.18,0,0,1,4.21,9.35H26m0-3H4.21A4.18,4.18,0,0,0,0,10.53V35.88a4.18,4.18,0,0,0,4.18,4.18H26a4.18,4.18,0,0,0,4.18-4.18V10.53A4.19,4.19,0,0,0,26,6.35Z" transform="translate(-0.03 -0.12)" style="fill:#1d1d1b"/><line x1="5.24" y1="13.24" x2="12.04" y2="13.24" style="fill:#fff;stroke:#1d1d1b;stroke-linecap:round;stroke-linejoin:round"/><line x1="5.24" y1="17.24" x2="16.59" y2="17.24" style="fill:#fff;stroke:#1d1d1b;stroke-linecap:round;stroke-linejoin:round"/><line x1="5.24" y1="21.24" x2="11.85" y2="21.24" style="fill:#fff;stroke:#1d1d1b;stroke-linecap:round;stroke-linejoin:round"/><line x1="5.25" y1="25.53" x2="23.99" y2="25.53" style="fill:#fff;stroke:#1d1d1b;stroke-linecap:round;stroke-linejoin:round"/><line x1="5.24" y1="29.71" x2="23.97" y2="29.71" style="fill:#fff;stroke:#1d1d1b;stroke-linecap:round;stroke-linejoin:round"/><line x1="21.13" y1="33.97" x2="23.81" y2="33.97" style="fill:#fff;stroke:#1d1d1b;stroke-linecap:round;stroke-linejoin:round"/><line x1="5.24" y1="33.97" x2="17.29" y2="33.97" style="fill:#fff;stroke:#1d1d1b;stroke-linecap:round;stroke-linejoin:round"/><rect x="11" y="1.5" width="27.18" height="30.71" rx="2.68" style="fill:#fff"/><path d="M35.53,3.12a1.17,1.17,0,0,1,1.18,1.17V29.65a1.17,1.17,0,0,1-1.18,1.17H13.71a1.17,1.17,0,0,1-1.18-1.17V4.29a1.17,1.17,0,0,1,1.18-1.17H35.53m0-3H13.71A4.18,4.18,0,0,0,9.53,4.29V29.65a4.18,4.18,0,0,0,4.18,4.17H35.53a4.18,4.18,0,0,0,4.18-4.17V4.29A4.18,4.18,0,0,0,35.53.12Z" transform="translate(-0.03 -0.12)" style="fill:#1d1d1b"/><line x1="26.04" y1="7.24" x2="33.97" y2="7.24" style="fill:#fff;stroke:#1d1d1b;stroke-linecap:round;stroke-linejoin:round"/><line x1="15.24" y1="7.24" x2="22.04" y2="7.24" style="fill:#fff;stroke:#1d1d1b;stroke-linecap:round;stroke-linejoin:round"/><line x1="30.59" y1="11.24" x2="33.97" y2="11.24" style="fill:#fff;stroke:#1d1d1b;stroke-linecap:round;stroke-linejoin:round"/><line x1="15.24" y1="11.24" x2="26.59" y2="11.24" style="fill:#fff;stroke:#1d1d1b;stroke-linecap:round;stroke-linejoin:round"/><line x1="26.85" y1="15.24" x2="33.97" y2="15.24" style="fill:#fff;stroke:#1d1d1b;stroke-linecap:round;stroke-linejoin:round"/><line x1="15.24" y1="15.24" x2="21.85" y2="15.24" style="fill:#fff;stroke:#1d1d1b;stroke-linecap:round;stroke-linejoin:round"/><line x1="15.24" y1="19.24" x2="33.97" y2="19.24" style="fill:#fff;stroke:#1d1d1b;stroke-linecap:round;stroke-linejoin:round"/><line x1="15.24" y1="23.24" x2="33.97" y2="23.24" style="fill:#fff;stroke:#1d1d1b;stroke-linecap:round;stroke-linejoin:round"/><line x1="31.29" y1="27.24" x2="33.97" y2="27.24" style="fill:#fff;stroke:#1d1d1b;stroke-linecap:round;stroke-linejoin:round"/><line x1="15.24" y1="27.24" x2="27.29" y2="27.24" style="fill:#fff;stroke:#1d1d1b;stroke-linecap:round;stroke-linejoin:round"/><path d="M22.07,28.32a7,7,0,1,1,7-6.95A7,7,0,0,1,22.07,28.32Z" transform="translate(-0.03 -0.12)" style="fill:#fff"/><path d="M22.07,15.41a6,6,0,1,1-5.95,6,6,6,0,0,1,5.95-6m0-2a8,8,0,1,0,8,8,8,8,0,0,0-8-8Z" transform="translate(-0.03 -0.12)" style="fill:#1d1d1b"/><polyline points="18.4 21.59 21.1 24.04 25.69 19.62" style="fill:#fff;stroke:#1d1d1b;stroke-linecap:round;stroke-linejoin:round;stroke-width:2px"/></svg>