<svg xmlns="http://www.w3.org/2000/svg" width="948" height="830.65" viewBox="0 0 948 830.65"><rect width="948" height="830.65" fill="#2e1b43"/><path d="M466.29,93.47S373.12,106.18,332.18,193s12,228.71,142.58,235.06" transform="translate(0 -1.35)" fill="none" stroke="#7b58a1" stroke-linecap="round" stroke-miterlimit="10" stroke-width="10"/><path d="M620.88,124.53s-78.35-29.65-151.06,24.71-112.23,184.23-8.47,269.64" transform="translate(0 -1.35)" fill="none" stroke="#7b58a1" stroke-linecap="round" stroke-miterlimit="10" stroke-width="10"/><path d="M747.94,250.18s-51.53-85.42-168-64.94S422.53,330.65,457.12,409.71" transform="translate(0 -1.35)" fill="none" stroke="#7b58a1" stroke-linecap="round" stroke-miterlimit="10" stroke-width="10"/><path d="M798.76,396.29s-14.11-84-94.58-117.17S495.94,262.18,462.76,405.47" transform="translate(0 -1.35)" fill="none" stroke="#7b58a1" stroke-linecap="round" stroke-miterlimit="10" stroke-width="10"/><path d="M755,568.53s39.53-83.29-16.24-160.24-172.23-112.23-268.23-9.17" transform="translate(0 -1.35)" fill="none" stroke="#7b58a1" stroke-linecap="round" stroke-miterlimit="10" stroke-width="10"/><path d="M651.94,689.24s73.41-60,52.24-163.77S578.53,370.18,475.47,401.24" transform="translate(0 -1.35)" fill="none" stroke="#7b58a1" stroke-linecap="round" stroke-miterlimit="10" stroke-width="10"/><path d="M479,735.12s102.35,1.41,141.88-115.06S562.29,410.41,483.94,402.65" transform="translate(0 -1.35)" fill="none" stroke="#7b58a1" stroke-linecap="round" stroke-miterlimit="10" stroke-width="10"/><path d="M325.12,706.18s81.88,31.76,156.7-27.53S587,497.94,485.35,410.41" transform="translate(0 -1.35)" fill="none" stroke="#7b58a1" stroke-linecap="round" stroke-miterlimit="10" stroke-width="10"/><path d="M199.47,580.53s60,86.82,163.77,67.06S529.82,521.24,490.29,421" transform="translate(0 -1.35)" fill="none" stroke="#7b58a1" stroke-linecap="round" stroke-miterlimit="10" stroke-width="10"/><path d="M148.65,433.71s23.29,115.76,139.76,132,182.12-68.47,197.65-144" transform="translate(0 -1.35)" fill="none" stroke="#7b58a1" stroke-linecap="round" stroke-miterlimit="10" stroke-width="10"/><path d="M192.41,260.06s-44.47,97.41,31.06,182.82S440.88,496.53,476.18,433" transform="translate(0 -1.35)" fill="none" stroke="#7b58a1" stroke-linecap="round" stroke-miterlimit="10" stroke-width="10"/><path d="M294.76,142.18s-61.41,57.17-55,136.23S317.35,471.82,462.76,433" transform="translate(0 -1.35)" fill="none" stroke="#7b58a1" stroke-linecap="round" stroke-miterlimit="10" stroke-width="10"/><path d="M466.29,93.47S373.12,106.18,332.18,193s12,228.71,142.58,235.06" transform="translate(0 -1.35)" fill="none" stroke="#7b58a1" stroke-linecap="round" stroke-miterlimit="10" stroke-width="23" opacity="0.5"/><path d="M620.88,124.53s-78.35-29.65-151.06,24.71-112.23,184.23-8.47,269.64" transform="translate(0 -1.35)" fill="none" stroke="#7b58a1" stroke-linecap="round" stroke-miterlimit="10" stroke-width="23" opacity="0.5"/><path d="M747.94,250.18s-51.53-85.42-168-64.94S422.53,330.65,457.12,409.71" transform="translate(0 -1.35)" fill="none" stroke="#7b58a1" stroke-linecap="round" stroke-miterlimit="10" stroke-width="23" opacity="0.5"/><path d="M798.76,396.29s-14.11-84-94.58-117.17S495.94,262.18,462.76,405.47" transform="translate(0 -1.35)" fill="none" stroke="#7b58a1" stroke-linecap="round" stroke-miterlimit="10" stroke-width="23" opacity="0.5"/><path d="M755,568.53s39.53-83.29-16.24-160.24-172.23-112.23-268.23-9.17" transform="translate(0 -1.35)" fill="none" stroke="#7b58a1" stroke-linecap="round" stroke-miterlimit="10" stroke-width="23" opacity="0.5"/><path d="M651.94,689.24s73.41-60,52.24-163.77S578.53,370.18,475.47,401.24" transform="translate(0 -1.35)" fill="none" stroke="#7b58a1" stroke-linecap="round" stroke-miterlimit="10" stroke-width="23" opacity="0.5"/><path d="M479,735.12s102.35,1.41,141.88-115.06S562.29,410.41,483.94,402.65" transform="translate(0 -1.35)" fill="none" stroke="#7b58a1" stroke-linecap="round" stroke-miterlimit="10" stroke-width="23" opacity="0.5"/><path d="M325.12,706.18s81.88,31.76,156.7-27.53S587,497.94,485.35,410.41" transform="translate(0 -1.35)" fill="none" stroke="#7b58a1" stroke-linecap="round" stroke-miterlimit="10" stroke-width="23" opacity="0.5"/><path d="M199.47,580.53s60,86.82,163.77,67.06S529.82,521.24,490.29,421" transform="translate(0 -1.35)" fill="none" stroke="#7b58a1" stroke-linecap="round" stroke-miterlimit="10" stroke-width="23" opacity="0.5"/><path d="M148.65,433.71s23.29,115.76,139.76,132,182.12-68.47,197.65-144" transform="translate(0 -1.35)" fill="none" stroke="#7b58a1" stroke-linecap="round" stroke-miterlimit="10" stroke-width="23" opacity="0.5"/><path d="M192.41,260.06s-44.47,97.41,31.06,182.82S440.88,496.53,476.18,433" transform="translate(0 -1.35)" fill="none" stroke="#7b58a1" stroke-linecap="round" stroke-miterlimit="10" stroke-width="23" opacity="0.5"/><path d="M294.76,142.18s-61.41,57.17-55,136.23S317.35,471.82,462.76,433" transform="translate(0 -1.35)" fill="none" stroke="#7b58a1" stroke-linecap="round" stroke-miterlimit="10" stroke-width="23" opacity="0.5"/><path d="M466.29,93.47S373.12,106.18,332.18,193s12,228.71,142.58,235.06" transform="translate(0 -1.35)" fill="none" stroke="#7b58a1" stroke-linecap="round" stroke-miterlimit="10" stroke-width="37" opacity="0.5"/><path d="M620.88,124.53s-78.35-29.65-151.06,24.71-112.23,184.23-8.47,269.64" transform="translate(0 -1.35)" fill="none" stroke="#7b58a1" stroke-linecap="round" stroke-miterlimit="10" stroke-width="37" opacity="0.5"/><path d="M747.94,250.18s-51.53-85.42-168-64.94S422.53,330.65,457.12,409.71" transform="translate(0 -1.35)" fill="none" stroke="#7b58a1" stroke-linecap="round" stroke-miterlimit="10" stroke-width="37" opacity="0.5"/><path d="M798.76,396.29s-14.11-84-94.58-117.17S495.94,262.18,462.76,405.47" transform="translate(0 -1.35)" fill="none" stroke="#7b58a1" stroke-linecap="round" stroke-miterlimit="10" stroke-width="37" opacity="0.5"/><path d="M755,568.53s39.53-83.29-16.24-160.24-172.23-112.23-268.23-9.17" transform="translate(0 -1.35)" fill="none" stroke="#7b58a1" stroke-linecap="round" stroke-miterlimit="10" stroke-width="37" opacity="0.5"/><path d="M651.94,689.24s73.41-60,52.24-163.77S578.53,370.18,475.47,401.24" transform="translate(0 -1.35)" fill="none" stroke="#7b58a1" stroke-linecap="round" stroke-miterlimit="10" stroke-width="37" opacity="0.5"/><path d="M479,735.12s102.35,1.41,141.88-115.06S562.29,410.41,483.94,402.65" transform="translate(0 -1.35)" fill="none" stroke="#7b58a1" stroke-linecap="round" stroke-miterlimit="10" stroke-width="37" opacity="0.5"/><path d="M325.12,706.18s81.88,31.76,156.7-27.53S587,497.94,485.35,410.41" transform="translate(0 -1.35)" fill="none" stroke="#7b58a1" stroke-linecap="round" stroke-miterlimit="10" stroke-width="37" opacity="0.5"/><path d="M199.47,580.53s60,86.82,163.77,67.06S529.82,521.24,490.29,421" transform="translate(0 -1.35)" fill="none" stroke="#7b58a1" stroke-linecap="round" stroke-miterlimit="10" stroke-width="37" opacity="0.5"/><path d="M148.65,433.71s23.29,115.76,139.76,132,182.12-68.47,197.65-144" transform="translate(0 -1.35)" fill="none" stroke="#7b58a1" stroke-linecap="round" stroke-miterlimit="10" stroke-width="37" opacity="0.5"/><path d="M192.41,260.06s-44.47,97.41,31.06,182.82S440.88,496.53,476.18,433" transform="translate(0 -1.35)" fill="none" stroke="#7b58a1" stroke-linecap="round" stroke-miterlimit="10" stroke-width="37" opacity="0.5"/><path d="M294.76,142.18s-61.41,57.17-55,136.23S317.35,471.82,462.76,433" transform="translate(0 -1.35)" fill="none" stroke="#7b58a1" stroke-linecap="round" stroke-miterlimit="10" stroke-width="37" opacity="0.5"/><path d="M473.59,221.72s-59.3-2.35-68.71,29.18c0,0-39.53,14.11-40.47,46.58,0,0-32,28.71-28.7,64.47,0,0-37.65,24-10.36,89.89,0,0-22.11,51.29,20.24,86.11,0,0-6.59,54.59,54.59,54.12,0,0,17.41,37.18,72,10.35,0,0,52.23,18.83,71.06-8.47,0,0,51.76,4.71,59.76-51.29,0,0,50.35-73.88,19.76-101.65,0,0,16-54.11-14.11-81.41,0,0,6.59-56.47-36.71-66.35,0,0,6.12-35.77-27.29-42.83C544.65,250.42,530.53,213.25,473.59,221.72Z" transform="translate(0 -1.35)" fill="#f5b2c2" stroke="#1d1d1b" stroke-linecap="round" stroke-miterlimit="10" stroke-width="2"/><path d="M406.29,248.9s-31.05,4.94-42.35,48.7c0,0-44.12,33.18-19.06,84.35" transform="translate(0 -1.35)" fill="none" stroke="#f18ca3" stroke-linecap="round" stroke-miterlimit="10" stroke-width="10"/><path d="M337.12,356.9s-37.06,28.23-13.41,94.58" transform="translate(0 -1.35)" fill="none" stroke="#f18ca3" stroke-linecap="round" stroke-miterlimit="10" stroke-width="10"/><path d="M341.35,428.19s-51.88,52.94,5.3,112.23" transform="translate(0 -1.35)" fill="none" stroke="#f18ca3" stroke-linecap="round" stroke-miterlimit="10" stroke-width="10"/><path d="M353.71,521S333,556.23,361.12,580c23.47,19.77,39.35,10.59,39.35,10.59" transform="translate(0 -1.35)" fill="none" stroke="#f18ca3" stroke-linecap="round" stroke-miterlimit="10" stroke-width="10"/><path d="M473.53,220.78c.12.21-88.58-5.89-64.65,60.23" transform="translate(0 -1.35)" fill="none" stroke="#f18ca3" stroke-linecap="round" stroke-miterlimit="10" stroke-width="10"/><path d="M402.94,564.78s-16.76,38.47,24.68,46.41c10.5,2,26.85.35,45.91-9.24V413.37" transform="translate(0 -1.35)" fill="none" stroke="#f18ca3" stroke-linecap="round" stroke-miterlimit="10" stroke-width="10"/><path d="M473.35,319.37s-16.47,15.53-52.47-4.71" transform="translate(0 -1.35)" fill="none" stroke="#f18ca3" stroke-linecap="round" stroke-miterlimit="10" stroke-width="10"/><path d="M394.76,316.31s-7.52,37.88,24,60.23,10.36,63.06,10.36,63.06" transform="translate(0 -1.35)" fill="none" stroke="#f18ca3" stroke-linecap="round" stroke-miterlimit="10" stroke-width="10"/><path d="M374.06,383.84s5.18-21.42,31.76-19.77" transform="translate(0 -1.35)" fill="none" stroke="#f18ca3" stroke-linecap="round" stroke-miterlimit="10" stroke-width="10"/><path d="M366.06,456.78s24.7,16,23.29,65.64" transform="translate(0 -1.35)" fill="none" stroke="#f18ca3" stroke-linecap="round" stroke-miterlimit="10" stroke-width="10"/><path d="M421.59,518s-15.06,1.42-33.18-15.76" transform="translate(0 -1.35)" fill="none" stroke="#f18ca3" stroke-linecap="round" stroke-miterlimit="10" stroke-width="10"/><path d="M489.82,556.07s-7.29-.94-16.23-9.17" transform="translate(0 -1.35)" fill="none" stroke="#f18ca3" stroke-linecap="round" stroke-miterlimit="10" stroke-width="10"/><path d="M508.41,508.07S510.24,462.9,474,458" transform="translate(0 -1.35)" fill="none" stroke="#f18ca3" stroke-linecap="round" stroke-miterlimit="10" stroke-width="10"/><path d="M535.94,485.72s-8.66,9.65-31-.46" transform="translate(0 -1.35)" fill="none" stroke="#f18ca3" stroke-linecap="round" stroke-miterlimit="10" stroke-width="10"/><path d="M530.53,411.13s30.12,9.18,32,40" transform="translate(0 -1.35)" fill="none" stroke="#f18ca3" stroke-linecap="round" stroke-miterlimit="10" stroke-width="10"/><path d="M515.47,349.72s-17.41-10.12-41.88,3.06" transform="translate(0 -1.35)" fill="none" stroke="#f18ca3" stroke-linecap="round" stroke-miterlimit="10" stroke-width="10"/><path d="M505.35,287.6s-12.47.24-31.76-20" transform="translate(0 -1.35)" fill="none" stroke="#f18ca3" stroke-linecap="round" stroke-miterlimit="10" stroke-width="10"/><path d="M473.53,220.78s56.06-8.94,70.18,28.7c0,0,32,6.59,29.64,42.83s-25.88,38.11-25.88,38.11" transform="translate(0 -1.35)" fill="none" stroke="#f18ca3" stroke-linecap="round" stroke-miterlimit="10" stroke-width="10"/><path d="M578.06,362.9s-13.18-2.36-17.88-38.59" transform="translate(0 -1.35)" fill="none" stroke="#f18ca3" stroke-linecap="round" stroke-miterlimit="10" stroke-width="10"/><path d="M573.35,292.31s39.06,12.7,37.18,67.76c0,0,53.18,69.18-24,120.47" transform="translate(0 -1.35)" fill="none" stroke="#f18ca3" stroke-linecap="round" stroke-miterlimit="10" stroke-width="10"/><path d="M600.65,540.78s47.53-49.88,24-104" transform="translate(0 -1.35)" fill="none" stroke="#f18ca3" stroke-linecap="round" stroke-miterlimit="10" stroke-width="10"/><path d="M473.53,602s50.41,20.71,73-8.94" transform="translate(0 -1.35)" fill="none" stroke="#f18ca3" stroke-linecap="round" stroke-miterlimit="10" stroke-width="10"/><path d="M521.59,574.66s22.12,35.76,61.17,5.65,4.71-62.12,4.71-62.12" transform="translate(0 -1.35)" fill="none" stroke="#f18ca3" stroke-linecap="round" stroke-miterlimit="10" stroke-width="10"/><line x1="473.53" y1="412.01" x2="473.53" y2="221.29" fill="none" stroke="#f18ca3" stroke-linecap="round" stroke-miterlimit="10" stroke-width="10"/></svg>