<svg xmlns="http://www.w3.org/2000/svg" width="38.72" height="39.84" viewBox="0 0 38.72 39.84"><path d="M3,27.7s1.73-2.27,0-7.11L33.5,20.5s5.91,3.2,1.2,7.29Z" style="fill:#fff"/><path d="M3.25,38.45s1.07-7.33.4-8.8S34.44,31,34.44,31s4.35,4.27.71,6.71S3.25,38.45,3.25,38.45Z" style="fill:#fff"/><path d="M1.5,25.56" style="fill:#fff;stroke:#141414;stroke-miterlimit:10;stroke-width:3px"/><path d="M1.5,30.34H32c2.86,0,5.18,1.37,5.18,3.06v1.88c0,1.69-2.32,3.06-5.18,3.06H1.5" style="fill:none;stroke:#141414;stroke-linecap:round;stroke-miterlimit:10;stroke-width:3px"/><path d="M2.73,30.34a7.56,7.56,0,0,1,1.15,4,9.24,9.24,0,0,1-1.15,4" style="fill:none;stroke:#141414;stroke-linecap:round;stroke-miterlimit:10;stroke-width:2px"/><path d="M1.5,11.56" style="fill:#fff;stroke:#141414;stroke-miterlimit:10;stroke-width:3px"/><path d="M1.5,20.5H32c2.86,0,5.18,1.37,5.18,3.05v1.89c0,1.69-2.32,3-5.18,3H1.5" style="fill:none;stroke:#141414;stroke-linecap:round;stroke-miterlimit:10;stroke-width:3px"/><path d="M2.73,20.5a7.53,7.53,0,0,1,1.15,4,9.24,9.24,0,0,1-1.15,4" style="fill:none;stroke:#141414;stroke-linecap:round;stroke-miterlimit:10;stroke-width:2px"/><polygon points="18.73 1 21.53 6.67 27.78 7.58 23.26 11.99 24.32 18.21 18.73 15.27 13.14 18.21 14.21 11.99 9.68 7.58 15.93 6.67 18.73 1" style="fill:#141414;stroke:#141414;stroke-linecap:round;stroke-linejoin:round;stroke-width:2px"/></svg>