<svg xmlns="http://www.w3.org/2000/svg" width="38.72" height="39.84" viewBox="0 0 38.72 39.84"><path d="M4.3,27.79s1.73-2.27,0-7.11l30.47-.09s5.91,3.2,1.2,7.29Z" transform="translate(-1.27 -0.09)" style="fill:#fff"/><path d="M4.52,38.54s1.07-7.33.4-8.8,30.79,1.33,30.79,1.33,4.35,4.27.71,6.71S4.52,38.54,4.52,38.54Z" transform="translate(-1.27 -0.09)" style="fill:#fff"/><path d="M2.77,25.65" transform="translate(-1.27 -0.09)" style="fill:#fff;stroke:#141414;stroke-miterlimit:10;stroke-width:3px"/><path d="M2.77,30.43H33.31c2.86,0,5.18,1.37,5.18,3.06v1.88c0,1.69-2.32,3.06-5.18,3.06H2.77" transform="translate(-1.27 -0.09)" style="fill:none;stroke:#141414;stroke-linecap:round;stroke-miterlimit:10;stroke-width:3px"/><path d="M4,30.43a7.54,7.54,0,0,1,1.15,4,9.19,9.19,0,0,1-1.15,4" transform="translate(-1.27 -0.09)" style="fill:none;stroke:#141414;stroke-linecap:round;stroke-miterlimit:10"/><path d="M2.77,11.65" transform="translate(-1.27 -0.09)" style="fill:#fff;stroke:#141414;stroke-miterlimit:10;stroke-width:3px"/><path d="M2.77,20.59H33.31c2.86,0,5.18,1.37,5.18,3.05v1.89c0,1.69-2.32,3-5.18,3H2.77" transform="translate(-1.27 -0.09)" style="fill:none;stroke:#141414;stroke-linecap:round;stroke-miterlimit:10;stroke-width:3px"/><path d="M4,20.59a7.49,7.49,0,0,1,1.15,4,9.18,9.18,0,0,1-1.15,4" transform="translate(-1.27 -0.09)" style="fill:none;stroke:#141414;stroke-linecap:round;stroke-miterlimit:10"/><polygon points="18.73 1 21.53 6.67 27.78 7.58 23.26 11.99 24.32 18.21 18.73 15.27 13.14 18.21 14.21 11.99 9.68 7.58 15.93 6.67 18.73 1" style="fill:#141414;stroke:#141414;stroke-linecap:round;stroke-linejoin:round;stroke-width:2px"/></svg>