<svg xmlns="http://www.w3.org/2000/svg" width="687.12" height="678.65" viewBox="0 0 687.12 678.65"><path d="M466.29,93.47S373.12,106.18,332.18,193s12,228.71,142.58,235.06" transform="translate(-130.15 -74.97)" fill="none" stroke="#7b58a1" stroke-linecap="round" stroke-miterlimit="10" stroke-width="10"/><path d="M620.88,124.53s-78.35-29.65-151.06,24.71-112.23,184.23-8.47,269.64" transform="translate(-130.15 -74.97)" fill="none" stroke="#7b58a1" stroke-linecap="round" stroke-miterlimit="10" stroke-width="10"/><path d="M747.94,250.18s-51.53-85.42-168-64.94S422.53,330.65,457.12,409.71" transform="translate(-130.15 -74.97)" fill="none" stroke="#7b58a1" stroke-linecap="round" stroke-miterlimit="10" stroke-width="10"/><path d="M798.76,396.29s-14.11-84-94.58-117.17S495.94,262.18,462.76,405.47" transform="translate(-130.15 -74.97)" fill="none" stroke="#7b58a1" stroke-linecap="round" stroke-miterlimit="10" stroke-width="10"/><path d="M755,568.53s39.53-83.29-16.24-160.24-172.23-112.23-268.23-9.17" transform="translate(-130.15 -74.97)" fill="none" stroke="#7b58a1" stroke-linecap="round" stroke-miterlimit="10" stroke-width="10"/><path d="M651.94,689.24s73.41-60,52.24-163.77S578.53,370.18,475.47,401.24" transform="translate(-130.15 -74.97)" fill="none" stroke="#7b58a1" stroke-linecap="round" stroke-miterlimit="10" stroke-width="10"/><path d="M479,735.12s102.35,1.41,141.88-115.06S562.29,410.41,483.94,402.65" transform="translate(-130.15 -74.97)" fill="none" stroke="#7b58a1" stroke-linecap="round" stroke-miterlimit="10" stroke-width="10"/><path d="M325.12,706.18s81.88,31.76,156.7-27.53S587,497.94,485.35,410.41" transform="translate(-130.15 -74.97)" fill="none" stroke="#7b58a1" stroke-linecap="round" stroke-miterlimit="10" stroke-width="10"/><path d="M199.47,580.53s60,86.82,163.77,67.06S529.82,521.24,490.29,421" transform="translate(-130.15 -74.97)" fill="none" stroke="#7b58a1" stroke-linecap="round" stroke-miterlimit="10" stroke-width="10"/><path d="M148.65,433.71s23.29,115.76,139.76,132,182.12-68.47,197.65-144" transform="translate(-130.15 -74.97)" fill="none" stroke="#7b58a1" stroke-linecap="round" stroke-miterlimit="10" stroke-width="10"/><path d="M192.41,260.06s-44.47,97.41,31.06,182.82S440.88,496.53,476.18,433" transform="translate(-130.15 -74.97)" fill="none" stroke="#7b58a1" stroke-linecap="round" stroke-miterlimit="10" stroke-width="10"/><path d="M294.76,142.18s-61.41,57.17-55,136.23S317.35,471.82,462.76,433" transform="translate(-130.15 -74.97)" fill="none" stroke="#7b58a1" stroke-linecap="round" stroke-miterlimit="10" stroke-width="10"/><path d="M466.29,93.47S373.12,106.18,332.18,193s12,228.71,142.58,235.06" transform="translate(-130.15 -74.97)" fill="none" stroke="#7b58a1" stroke-linecap="round" stroke-miterlimit="10" stroke-width="23" opacity="0.5"/><path d="M620.88,124.53s-78.35-29.65-151.06,24.71-112.23,184.23-8.47,269.64" transform="translate(-130.15 -74.97)" fill="none" stroke="#7b58a1" stroke-linecap="round" stroke-miterlimit="10" stroke-width="23" opacity="0.5"/><path d="M747.94,250.18s-51.53-85.42-168-64.94S422.53,330.65,457.12,409.71" transform="translate(-130.15 -74.97)" fill="none" stroke="#7b58a1" stroke-linecap="round" stroke-miterlimit="10" stroke-width="23" opacity="0.5"/><path d="M798.76,396.29s-14.11-84-94.58-117.17S495.94,262.18,462.76,405.47" transform="translate(-130.15 -74.97)" fill="none" stroke="#7b58a1" stroke-linecap="round" stroke-miterlimit="10" stroke-width="23" opacity="0.5"/><path d="M755,568.53s39.53-83.29-16.24-160.24-172.23-112.23-268.23-9.17" transform="translate(-130.15 -74.97)" fill="none" stroke="#7b58a1" stroke-linecap="round" stroke-miterlimit="10" stroke-width="23" opacity="0.5"/><path d="M651.94,689.24s73.41-60,52.24-163.77S578.53,370.18,475.47,401.24" transform="translate(-130.15 -74.97)" fill="none" stroke="#7b58a1" stroke-linecap="round" stroke-miterlimit="10" stroke-width="23" opacity="0.5"/><path d="M479,735.12s102.35,1.41,141.88-115.06S562.29,410.41,483.94,402.65" transform="translate(-130.15 -74.97)" fill="none" stroke="#7b58a1" stroke-linecap="round" stroke-miterlimit="10" stroke-width="23" opacity="0.5"/><path d="M325.12,706.18s81.88,31.76,156.7-27.53S587,497.94,485.35,410.41" transform="translate(-130.15 -74.97)" fill="none" stroke="#7b58a1" stroke-linecap="round" stroke-miterlimit="10" stroke-width="23" opacity="0.5"/><path d="M199.47,580.53s60,86.82,163.77,67.06S529.82,521.24,490.29,421" transform="translate(-130.15 -74.97)" fill="none" stroke="#7b58a1" stroke-linecap="round" stroke-miterlimit="10" stroke-width="23" opacity="0.5"/><path d="M148.65,433.71s23.29,115.76,139.76,132,182.12-68.47,197.65-144" transform="translate(-130.15 -74.97)" fill="none" stroke="#7b58a1" stroke-linecap="round" stroke-miterlimit="10" stroke-width="23" opacity="0.5"/><path d="M192.41,260.06s-44.47,97.41,31.06,182.82S440.88,496.53,476.18,433" transform="translate(-130.15 -74.97)" fill="none" stroke="#7b58a1" stroke-linecap="round" stroke-miterlimit="10" stroke-width="23" opacity="0.5"/><path d="M294.76,142.18s-61.41,57.17-55,136.23S317.35,471.82,462.76,433" transform="translate(-130.15 -74.97)" fill="none" stroke="#7b58a1" stroke-linecap="round" stroke-miterlimit="10" stroke-width="23" opacity="0.5"/><path d="M466.29,93.47S373.12,106.18,332.18,193s12,228.71,142.58,235.06" transform="translate(-130.15 -74.97)" fill="none" stroke="#7b58a1" stroke-linecap="round" stroke-miterlimit="10" stroke-width="37" opacity="0.5"/><path d="M620.88,124.53s-78.35-29.65-151.06,24.71-112.23,184.23-8.47,269.64" transform="translate(-130.15 -74.97)" fill="none" stroke="#7b58a1" stroke-linecap="round" stroke-miterlimit="10" stroke-width="37" opacity="0.5"/><path d="M747.94,250.18s-51.53-85.42-168-64.94S422.53,330.65,457.12,409.71" transform="translate(-130.15 -74.97)" fill="none" stroke="#7b58a1" stroke-linecap="round" stroke-miterlimit="10" stroke-width="37" opacity="0.5"/><path d="M798.76,396.29s-14.11-84-94.58-117.17S495.94,262.18,462.76,405.47" transform="translate(-130.15 -74.97)" fill="none" stroke="#7b58a1" stroke-linecap="round" stroke-miterlimit="10" stroke-width="37" opacity="0.5"/><path d="M755,568.53s39.53-83.29-16.24-160.24-172.23-112.23-268.23-9.17" transform="translate(-130.15 -74.97)" fill="none" stroke="#7b58a1" stroke-linecap="round" stroke-miterlimit="10" stroke-width="37" opacity="0.5"/><path d="M651.94,689.24s73.41-60,52.24-163.77S578.53,370.18,475.47,401.24" transform="translate(-130.15 -74.97)" fill="none" stroke="#7b58a1" stroke-linecap="round" stroke-miterlimit="10" stroke-width="37" opacity="0.5"/><path d="M479,735.12s102.35,1.41,141.88-115.06S562.29,410.41,483.94,402.65" transform="translate(-130.15 -74.97)" fill="none" stroke="#7b58a1" stroke-linecap="round" stroke-miterlimit="10" stroke-width="37" opacity="0.5"/><path d="M325.12,706.18s81.88,31.76,156.7-27.53S587,497.94,485.35,410.41" transform="translate(-130.15 -74.97)" fill="none" stroke="#7b58a1" stroke-linecap="round" stroke-miterlimit="10" stroke-width="37" opacity="0.5"/><path d="M199.47,580.53s60,86.82,163.77,67.06S529.82,521.24,490.29,421" transform="translate(-130.15 -74.97)" fill="none" stroke="#7b58a1" stroke-linecap="round" stroke-miterlimit="10" stroke-width="37" opacity="0.5"/><path d="M148.65,433.71s23.29,115.76,139.76,132,182.12-68.47,197.65-144" transform="translate(-130.15 -74.97)" fill="none" stroke="#7b58a1" stroke-linecap="round" stroke-miterlimit="10" stroke-width="37" opacity="0.5"/><path d="M192.41,260.06s-44.47,97.41,31.06,182.82S440.88,496.53,476.18,433" transform="translate(-130.15 -74.97)" fill="none" stroke="#7b58a1" stroke-linecap="round" stroke-miterlimit="10" stroke-width="37" opacity="0.5"/><path d="M294.76,142.18s-61.41,57.17-55,136.23S317.35,471.82,462.76,433" transform="translate(-130.15 -74.97)" fill="none" stroke="#7b58a1" stroke-linecap="round" stroke-miterlimit="10" stroke-width="37" opacity="0.5"/></svg>